<?xml version="1.0" standalone="no"?><!DOCTYPE svg PUBLIC "-//W3C//DTD SVG 1.1//EN" "http://www.w3.org/Graphics/SVG/1.1/DTD/svg11.dtd"><svg t="1626937498089" class="icon" viewBox="0 0 1024 1024" version="1.1" xmlns="http://www.w3.org/2000/svg" p-id="918" xmlns:xlink="http://www.w3.org/1999/xlink" width="200" height="200"><defs><style type="text/css">@font-face { font-family: feedback-iconfont; src: url("//at.alicdn.com/t/font_1031158_1uhr8ri0pk5.eot?#iefix") format("embedded-opentype"), url("//at.alicdn.com/t/font_1031158_1uhr8ri0pk5.woff2") format("woff2"), url("//at.alicdn.com/t/font_1031158_1uhr8ri0pk5.woff") format("woff"), url("//at.alicdn.com/t/font_1031158_1uhr8ri0pk5.ttf") format("truetype"), url("//at.alicdn.com/t/font_1031158_1uhr8ri0pk5.svg#iconfont") format("svg"); }
</style></defs><path d="M872.239 491.867s48.912-383.776-10.597-417.84c-57.287-32.782-218.565 276.391-218.565 276.391-37.306-9.214-79.021-15.539-119.833-14.006-32.595-1.195-72.966 3.886-120.813 14.95-14.055-9.569-205.061-309.81-264.496-270.493-59.454 39.315 26.877 428.082 26.877 428.082-37.699 52.949-57.174 65.584-57.174 131.851 0 169.166 183.913 343.938 414.71 343.938 230.768 0 421.026-158.831 421.026-353.509 0-72.874-26.222-83.164-71.135-139.364z m-659.674-38.23s-57.884-267.317-27.867-287.159c29.998-19.839 147.878 207.79 147.878 207.79l-120.011 79.369z m401.936 495.509c-2.021 0-4.038-0.104-6.085-0.327-31.391-3.403-58.257-33.271-79.929-88.808-21.671 55.536-48.539 85.404-79.929 88.808-51.053 5.56-93.535-60.783-95.331-63.605l8.093-5.12c0.401 0.636 41.185 64.163 86.218 59.209 28.513-3.112 53.398-32.782 74.033-88.096-12.328-8.521-25.765-34.202-19.167-42.968 7.943-10.57 46.202-11.412 52.885 0 5.615 9.587-7.553 35.344-19.739 43.333 20.598 55.07 45.437 84.629 73.885 87.73 45.099 4.739 85.807-58.573 86.217-59.209l8.095 5.12c-1.722 2.713-40.988 63.933-89.246 63.933z m209.741-505.22l-117.936-82.404S807.16 136.444 836.652 157.051c29.476 20.595-12.41 286.875-12.41 286.875z" fill="#DDDDDD" p-id="919"></path><path d="M394.347 605.094c0 39.333-31.867 71.2-71.209 71.2-39.325 0-71.229-31.867-71.229-71.2 0-39.344 31.905-71.221 71.229-71.221 39.342 0 71.209 31.877 71.209 71.221z" fill="#F5E829" p-id="920"></path><path d="M318.894 565.123c0 17.289-14.017 31.288-31.286 31.288-17.252 0-31.27-13.999-31.27-31.288 0-17.27 14.018-31.25 31.27-31.25 17.269 0 31.286 13.981 31.286 31.25z" fill="#FFFFFF" p-id="921"></path><path d="M798.693 605.094c0 39.333-31.886 71.2-71.229 71.2-39.324 0-71.21-31.867-71.21-71.2 0-39.344 31.886-71.221 71.21-71.221 39.344 0 71.229 31.877 71.229 71.221z" fill="#F5E829" p-id="922"></path><path d="M723.222 565.123c0 17.289-14 31.288-31.27 31.288-17.269 0-31.269-13.999-31.269-31.288 0-17.27 14-31.25 31.269-31.25 17.27 0 31.27 13.981 31.27 31.25z" fill="#FFFFFF" p-id="923"></path></svg>