<?xml version="1.0" standalone="no"?><!DOCTYPE svg PUBLIC "-//W3C//DTD SVG 1.1//EN" "http://www.w3.org/Graphics/SVG/1.1/DTD/svg11.dtd"><svg t="1626937478650" class="icon" viewBox="0 0 1024 1024" version="1.1" xmlns="http://www.w3.org/2000/svg" p-id="9034" xmlns:xlink="http://www.w3.org/1999/xlink" width="200" height="200"><defs><style type="text/css">@font-face { font-family: feedback-iconfont; src: url("//at.alicdn.com/t/font_1031158_1uhr8ri0pk5.eot?#iefix") format("embedded-opentype"), url("//at.alicdn.com/t/font_1031158_1uhr8ri0pk5.woff2") format("woff2"), url("//at.alicdn.com/t/font_1031158_1uhr8ri0pk5.woff") format("woff"), url("//at.alicdn.com/t/font_1031158_1uhr8ri0pk5.ttf") format("truetype"), url("//at.alicdn.com/t/font_1031158_1uhr8ri0pk5.svg#iconfont") format("svg"); }
</style></defs><path d="M889.152 383.57s62.086-255.012-1.091-291.159c-60.808-34.798-242.157 141.016-242.157 141.016s-10.197-4.582-11.148-1.924c-8.502 23.588-18.064 117.925-18.064 117.925 0 10.314-8.363 18.687-18.67 18.687-10.315 0-18.677-8.372-18.677-18.687l1.677-130.841c1.637 0.1-14.444 0.952-19.522 0.478-12.857-1.518-4.731 0.495-17.926-0.07 0.16 0.031 0.418 0.04 0.556 0.07-2.41 24.641-8.549 129.231-8.549 129.231 0 10.315-8.363 18.668-18.67 18.668-10.316 0-18.679-8.353-18.995-20.732l-15.98-125.721-0.11-0.495c-7.231-2.301-30.116 3.649-30.116 3.649 10.595 21.606-3.252 125.763-3.252 125.763 0 10.314-8.362 18.667-18.668 18.667-10.316 0-18.679-8.353-18.252-10.612L394.794 236.78l-6.289-6.249C327.277 182.818 182.969 57.929 119.871 99.673c-63.099 41.72 18.369 302.029 18.369 302.029-40.015 56.205-60.686 120.403-60.686 190.733 0 206.644 198.588 374.146 443.562 374.146 244.954 0 443.543-167.502 443.543-374.146 0-77.352-27.834-149.208-75.507-208.865z m-700.221-40.591s-41.118-131.374-9.266-152.443c31.843-21.05 136.653 68.206 136.653 68.206l-127.387 84.237zM616.869 732.49c-2.133 0-4.294-0.109-6.457-0.348-33.33-3.61-61.838-35.313-84.842-94.275-23.003 58.963-51.513 90.665-84.842 94.275-54.071 5.853-99.295-64.517-101.189-67.522l8.579-5.426c0.437 0.674 43.687 67.978 91.539 62.851 30.93-3.373 57.851-36.147 80.031-97.4l0.237-0.664c-13.53-7.551-29.549-37.059-22.21-46.801 8.431-11.229 49.042-12.122 56.136 0 6.211 10.595-9.206 39.876-22.558 47.018l0.158 0.447c22.182 61.274 49.121 94.047 80.051 97.4 48.111 5.317 91.081-62.177 91.507-62.851l8.592 5.426c-1.815 2.888-43.497 67.87-94.732 67.87z m221.334-399.808l-125.183-87.47s107.062-86.558 138.357-64.676c31.296 21.864-13.174 152.146-13.174 152.146z" fill="#DDDDDD" p-id="9035"></path><path d="M386.974 513.912c0 41.743-33.824 75.566-75.585 75.566-41.742 0-75.607-33.823-75.607-75.566 0-41.761 33.866-75.606 75.607-75.606 41.76 0 75.585 33.845 75.585 75.606z" fill="#25A7AD" p-id="9036"></path><path d="M306.874 471.476c0 18.353-14.87 33.211-33.202 33.211-18.321 0-33.189-14.858-33.189-33.211 0-18.33 14.868-33.17 33.189-33.17 18.332 0 33.202 14.84 33.202 33.17z" fill="#FFFFFF" p-id="9037"></path><path d="M816.174 513.912c0 41.743-33.847 75.566-75.607 75.566-41.742 0-75.586-33.823-75.586-75.566 0-41.761 33.844-75.606 75.586-75.606 41.76 0 75.607 33.845 75.607 75.606z" fill="#25A7AD" p-id="9038"></path><path d="M736.063 471.476c0 18.353-14.869 33.211-33.201 33.211-18.321 0-33.189-14.858-33.189-33.211 0-18.33 14.868-33.17 33.189-33.17 18.331 0 33.201 14.84 33.201 33.17z" fill="#FFFFFF" p-id="9039"></path></svg>